<svg xmlns="http://www.w3.org/2000/svg" width="800" height="450" viewBox="0 0 800 450">
  <defs>
    <linearGradient id="bg" x1="0%" y1="0%" x2="100%" y2="100%">
      <stop offset="0%" style="stop-color:#0f172a"/>
      <stop offset="100%" style="stop-color:#134e4a"/>
    </linearGradient>
  </defs>
  <rect width="800" height="450" fill="url(#bg)" rx="8"/>
  <rect x="24" y="24" width="752" height="56" rx="6" fill="#1e293b" opacity="0.8"/>
  <rect x="24" y="100" width="752" height="36" rx="4" fill="#1e293b" opacity="0.7"/>
  <rect x="24" y="144" width="752" height="28" rx="3" fill="#1e293b" opacity="0.4"/>
  <rect x="24" y="178" width="752" height="28" rx="3" fill="#1e293b" opacity="0.5"/>
  <rect x="24" y="212" width="752" height="28" rx="3" fill="#1e293b" opacity="0.4"/>
  <rect x="24" y="246" width="752" height="28" rx="3" fill="#dc2626" opacity="0.15"/>
  <rect x="24" y="280" width="752" height="28" rx="3" fill="#1e293b" opacity="0.4"/>
  <rect x="24" y="314" width="752" height="28" rx="3" fill="#1e293b" opacity="0.5"/>
  <rect x="24" y="348" width="752" height="28" rx="3" fill="#1e293b" opacity="0.4"/>
  <rect x="24" y="382" width="752" height="28" rx="3" fill="#1e293b" opacity="0.5"/>
  <text x="400" y="240" font-family="sans-serif" font-size="20" fill="#94a3b8" text-anchor="middle">Clasificacion</text>
</svg>